{"accessors":[{"bufferView":0,"componentType":5121,"count":6,"max":[3],"min":[0],"type":"SCALAR"},{"bufferView":1,"componentType":5126,"count":4,"max":[3.988886833190918,2.491044282913208,0.43529319763183594],"min":[-2.114907741546631,-1.6951923370361328,-0.5311754941940308],"type":"VEC3"},{"bufferView":2,"componentType":5126,"count":4,"max":[0.0,-0.22495101392269135,0.9743700623512268],"min":[0.0,-0.22495101392269135,0.9743700623512268],"type":"VEC3"},{"bufferView":3,"componentType":5126,"count":4,"max":[1.0,1.0],"min":[0.0,0.0],"type":"VEC2"},{"bufferView":4,"componentType":5121,"count":48,"max":[15],"min":[0],"type":"SCALAR"},{"bufferView":5,"componentType":5126,"count":16,"max":[1.6209784746170044,0.7023810148239136,-0.24715757369995117],"min":[-1.2264792919158936,-0.7023809552192688,-0.24715998768806458],"type":"VEC3"},{"bufferView":6,"componentType":5126,"count":16,"max":[0.0,-9.999999974752427e-07,-1.0],"min":[0.0,-9.999999974752427e-07,-1.0],"type":"VEC3"},{"bufferView":7,"componentType":5126,"count":16,"max":[0.6813855767250061,0.9999997615814209],"min":[0.6087557077407837,0.9343485832214355],"type":"VEC2"},{"bufferView":8,"componentType":5126,"count":16,"max":[1.0,1.0,1.0,1.0],"min":[1.0,1.0,1.0,1.0],"type":"VEC4"},{"bufferView":9,"componentType":5121,"count":6,"max":[3],"min":[0],"type":"SCALAR"},{"bufferView":10,"componentType":5126,"count":4,"max":[1.535844326019287,0.6469598412513733,-0.05015583336353302],"min":[-1.1421222686767578,-0.6387547254562378,-0.050169069319963455],"type":"VEC3"},{"bufferView":11,"componentType":5126,"count":4,"max":[-3.999999989900971e-06,-9.999999974752427e-07,-1.0],"min":[-3.999999989900971e-06,-9.999999974752427e-07,-1.0],"type":"VEC3"},{"bufferView":12,"componentType":5126,"count":4,"max":[0.17547987401485443,0.7294260859489441],"min":[0.1090051531791687,0.6676827669143677],"type":"VEC2"},{"bufferView":13,"componentType":5126,"count":4,"max":[1.0,1.0,1.0,1.0],"min":[1.0,1.0,1.0,1.0],"type":"VEC4"},{"bufferView":14,"componentType":5121,"count":120,"max":[63],"min":[0],"type":"SCALAR"},{"bufferView":15,"componentType":5126,"count":64,"max":[1.6209782361984253,0.7023810744285583,0.9498668313026428],"min":[-1.2264790534973145,-0.7023810744285583,-1.0501480102539062],"type":"VEC3"},{"bufferView":16,"componentType":5126,"count":64,"max":[1.0,1.0,1.0],"min":[-1.0,-1.0,-1.0],"type":"VEC3"},{"bufferView":17,"componentType":5126,"count":64,"max":[0.8544467687606812,0.9999997615814209],"min":[0.10900542140007019,0.6193515658378601],"type":"VEC2"},{"bufferView":18,"componentType":5126,"count":64,"max":[1.0,1.0,1.0,1.0],"min":[1.0,1.0,1.0,1.0],"type":"VEC4"},{"bufferView":19,"componentType":5121,"count":36,"max":[23],"min":[0],"type":"SCALAR"},{"bufferView":20,"componentType":5126,"count":24,"max":[1.5537443161010742,0.6540151834487915,0.6108078360557556],"min":[-1.1581202745437622,-0.6555086970329285,0.560794472694397],"type":"VEC3"},{"bufferView":21,"componentType":5126,"count":24,"max":[1.0,1.0,1.0],"min":[-1.0,-1.0,-1.0],"type":"VEC3"},{"bufferView":22,"componentType":5126,"count":24,"max":[0.9773887395858765,0.9292977452278137],"min":[0.24684669077396393,0.5956324934959412],"type":"VEC2"},{"bufferView":23,"componentType":5126,"count":24,"max":[1.0,1.0,1.0,1.0],"min":[1.0,1.0,1.0,1.0],"type":"VEC4"},{"bufferView":24,"componentType":5123,"count":4080,"max":[2103],"min":[0],"type":"SCALAR"},{"bufferView":25,"componentType":5126,"count":2104,"max":[1.1507089138031006,1.5198317766189575,44.91211700439453],"min":[-0.7409936785697937,-1.5660946369171143,-2.0559940338134766],"type":"VEC3"},{"bufferView":26,"componentType":5126,"count":2104,"max":[1.0,1.0,0.9991468787193298],"min":[-1.0,-1.0,-0.9991468787193298],"type":"VEC3"},{"bufferView":27,"componentType":5126,"count":2104,"max":[0.980400562286377,1.0],"min":[0.0,5.960464477539063e-08],"type":"VEC2"},{"bufferView":28,"componentType":5126,"count":2104,"max":[1.0,1.0,1.0,1.0],"min":[1.0,1.0,1.0,1.0],"type":"VEC4"}],"asset":{"generator":"Verge3D for Blender","version":"2.0"},"bufferViews":[{"buffer":0,"byteLength":6,"byteOffset":0,"target":34963},{"buffer":0,"byteLength":48,"byteOffset":8,"target":34962},{"buffer":0,"byteLength":48,"byteOffset":56,"target":34962},{"buffer":0,"byteLength":32,"byteOffset":104,"target":34962},{"buffer":0,"byteLength":48,"byteOffset":136,"target":34963},{"buffer":0,"byteLength":192,"byteOffset":184,"target":34962},{"buffer":0,"byteLength":192,"byteOffset":376,"target":34962},{"buffer":0,"byteLength":128,"byteOffset":568,"target":34962},{"buffer":0,"byteLength":256,"byteOffset":696,"target":34962},{"buffer":0,"byteLength":6,"byteOffset":952,"target":34963},{"buffer":0,"byteLength":48,"byteOffset":960,"target":34962},{"buffer":0,"byteLength":48,"byteOffset":1008,"target":34962},{"buffer":0,"byteLength":32,"byteOffset":1056,"target":34962},{"buffer":0,"byteLength":64,"byteOffset":1088,"target":34962},{"buffer":0,"byteLength":120,"byteOffset":1152,"target":34963},{"buffer":0,"byteLength":768,"byteOffset":1272,"target":34962},{"buffer":0,"byteLength":768,"byteOffset":2040,"target":34962},{"buffer":0,"byteLength":512,"byteOffset":2808,"target":34962},{"buffer":0,"byteLength":1024,"byteOffset":3320,"target":34962},{"buffer":0,"byteLength":36,"byteOffset":4344,"target":34963},{"buffer":0,"byteLength":288,"byteOffset":4380,"target":34962},{"buffer":0,"byteLength":288,"byteOffset":4668,"target":34962},{"buffer":0,"byteLength":192,"byteOffset":4956,"target":34962},{"buffer":0,"byteLength":384,"byteOffset":5148,"target":34962},{"buffer":0,"byteLength":8160,"byteOffset":5532,"target":34963},{"buffer":0,"byteLength":25248,"byteOffset":13692,"target":34962},{"buffer":0,"byteLength":25248,"byteOffset":38940,"target":34962},{"buffer":0,"byteLength":16832,"byteOffset":64188,"target":34962},{"buffer":0,"byteLength":33664,"byteOffset":81020,"target":34962}],"buffers":[{"byteLength":114684,"uri":"whole-trying.bin"}],"cameras":[{"extensions":{"S8S_v3d_camera":{"controls":"ORBIT","enablePan":true,"moveSpeed":1.0,"orbitMaxDistance":100.0,"orbitMaxPolarAngle":3.1415927410125732,"orbitMaxZoom":100.0,"orbitMinDistance":0.0,"orbitMinPolarAngle":0.0,"orbitMinZoom":0.009999999776482582,"orbitTarget":[0.0,0.0,-0.0],"rotateSpeed":1.0,"viewportFitInitialAspect":1.7777777777777777,"viewportFitType":"AUTO"}},"name":"Camera","perspective":{"aspectRatio":1.7777777777777777,"yfov":0.39959648408210363,"zfar":100.0,"znear":0.10000000149011612},"type":"perspective"}],"extensions":{"S8S_v3d_lights":{"lights":[{"color":[1.0,1.0,1.0],"decay":2,"distance":31.622776955095866,"intensity":1000.0,"name":"Light","profile":"blender","shadow":{"bias":-0.0018,"cameraFar":31.622776955095866,"cameraFov":0,"cameraNear":0.05000000074505806,"enabled":true,"expBias":2.5,"mapSize":512,"radius":1.0,"slopeScaledBias":2.5},"type":"point"}]}},"extensionsUsed":["S8S_v3d_texture","S8S_v3d_materials","S8S_v3d_camera","S8S_v3d_lights","S8S_v3d_mesh","S8S_v3d_node","S8S_v3d_scene"],"images":[{"uri":"4.jpg"},{"uri":"baked-light.png"},{"uri":"baked-light_001.png"},{"uri":"Wood09_2K_BaseColor.png"},{"uri":"studio_country_hall_4k.png"}],"materials":[{"alphaMode":"BLEND","doubleSided":true,"extensions":{"S8S_v3d_materials":{"depthWrite":false,"gtaoVisible":false,"materialIndex":0,"nodeGraph":{"edges":[{"fromNode":0,"fromOutput":0,"toInput":0,"toNode":1},{"fromNode":0,"fromOutput":1,"toInput":21,"toNode":1},{"fromNode":1,"fromOutput":0,"toInput":0,"toNode":2}],"nodes":[{"alphaMode":"STRAIGHT","clampToEdgeNoExtend":true,"inputs":[[0.0,0.0,0.0]],"is_active_output":false,"name":"Image Texture","outputs":[[0.0,0.0,0.0,0.0],0.0],"projection":"FLAT","projectionBlend":0.0,"texture":0,"type":"TEX_IMAGE_BL"},{"inputs":[[0.800000011920929,0.800000011920929,0.800000011920929,1.0],0.0,[1.0,0.20000000298023224,0.10000000149011612],[0.800000011920929,0.800000011920929,0.800000011920929,1.0],1.399999976158142,0.0,0.0,0.5,0.0,0.5,0.0,0.0,0.0,0.5,0.0,0.029999999329447746,1.4500000476837158,0.0,0.0,[0.0,0.0,0.0,1.0],1.0,1.0,[0.0,0.0,0.0],[0.0,0.0,0.0],[0.0,0.0,0.0]],"is_active_output":false,"name":"Principled BSDF","outputs":[[0,0,0,0]],"type":"BSDF_PRINCIPLED_BL"},{"inputs":[[0,0,0,0],[0,0,0,0],[0.0,0.0,0.0],0.0],"is_active_output":true,"name":"Material Output","outputs":[],"type":"OUTPUT_MATERIAL_BL"}]},"renderSide":"DOUBLE","useCastShadows":true}},"name":"4"},{"extensions":{"S8S_v3d_materials":{"gtaoVisible":true,"materialIndex":0,"nodeGraph":{"edges":[{"fromNode":0,"fromOutput":0,"toInput":0,"toNode":2},{"fromNode":2,"fromOutput":0,"toInput":0,"toNode":1}],"nodes":[{"alphaMode":"STRAIGHT","inputs":[[0.0,0.0,0.0]],"is_active_output":false,"name":"Image Texture","outputs":[[0.0,0.0,0.0,0.0],0.0],"projection":"FLAT","projectionBlend":0.0,"texture":1,"type":"TEX_IMAGE_BL"},{"inputs":[[0,0,0,0],[0,0,0,0],[0.0,0.0,0.0],0.0],"is_active_output":true,"name":"Material Output","outputs":[],"type":"OUTPUT_MATERIAL_BL"},{"inputs":[[1.0,1.0,1.0,1.0],1.0],"is_active_output":false,"name":"Emission","outputs":[[0,0,0,0]],"type":"EMISSION_BL"}]},"useCastShadows":true}},"name":"Base-material"},{"extensions":{"S8S_v3d_materials":{"gtaoVisible":true,"materialIndex":0,"nodeGraph":{"edges":[{"fromNode":1,"fromOutput":0,"toInput":0,"toNode":0},{"fromNode":6,"fromOutput":0,"toInput":0,"toNode":1},{"fromNode":5,"fromOutput":0,"toInput":1,"toNode":4},{"fromNode":2,"fromOutput":0,"toInput":0,"toNode":7},{"fromNode":3,"fromOutput":2,"toInput":0,"toNode":2},{"fromNode":4,"fromOutput":0,"toInput":1,"toNode":6},{"fromNode":7,"fromOutput":0,"toInput":2,"toNode":6}],"nodes":[{"inputs":[[0,0,0,0],[0,0,0,0],[0.0,0.0,0.0],0.0],"is_active_output":true,"name":"Material Output","outputs":[],"type":"OUTPUT_MATERIAL_BL"},{"inputs":[[1.0,1.0,1.0,1.0],1.0],"is_active_output":false,"name":"Emission","outputs":[[0,0,0,0]],"type":"EMISSION_BL"},{"inputs":[[0.0,0.0,0.0],[0.0,0.0,0.0],[0.0,0.0,0.0],[-97.79999542236328,-6.599994659423828,-83.19999694824219]],"is_active_output":false,"name":"Mapping","outputs":[[0.0,0.0,0.0]],"type":"MAPPING_BL","vectorType":"POINT"},{"inputs":[],"is_active_output":false,"name":"Texture Coordinate","object":-1,"outputs":[[0.0,0.0,0.0],[0.0,0.0,0.0],[0.0,0.0,0.0],[0.0,0.0,0.0],[0.0,0.0,0.0],[0.0,0.0,0.0],[0.0,0.0,0.0]],"type":"TEX_COORD_BL"},{"blendType":"MIX","inputs":[1.0,[0.5,0.0008234474807977676,0.0,1.0],[0.5,0.0,0.0033418205566704273,1.0]],"is_active_output":false,"name":"Mix.001","outputs":[[0.0,0.0,0.0,0.0]],"type":"MIX_RGB_BL","useClamp":false},{"alphaMode":"STRAIGHT","inputs":[[0.0,0.0,0.0]],"is_active_output":false,"name":"Image Texture","outputs":[[0.0,0.0,0.0,0.0],0.0],"projection":"FLAT","projectionBlend":0.0,"texture":2,"type":"TEX_IMAGE_BL"},{"blendType":"MIX","inputs":[1.0,[0.5,0.0008234474807977676,0.0,1.0],[0.5,0.0008234474807977676,0.0,1.0]],"is_active_output":false,"name":"Mix","outputs":[[0.0,0.0,0.0,0.0]],"type":"MIX_RGB_BL","useClamp":false},{"alphaMode":"STRAIGHT","inputs":[[0.0,0.0,0.0]],"is_active_output":false,"name":"Image Texture.001","outputs":[[0.0,0.0,0.0,0.0],0.0],"projection":"FLAT","projectionBlend":0.0,"texture":3,"type":"TEX_IMAGE_BL"}]},"useCastShadows":true}},"name":"frame"},{"extensions":{"S8S_v3d_materials":{"gtaoVisible":true,"materialIndex":0,"nodeGraph":{"edges":[{"fromNode":1,"fromOutput":0,"toInput":0,"toNode":0},{"fromNode":2,"fromOutput":0,"toInput":0,"toNode":1}],"nodes":[{"inputs":[[0,0,0,0],[0,0,0,0]],"is_active_output":true,"name":"World Output","outputs":[],"type":"OUTPUT_WORLD_BL"},{"inputs":[[0.05087608844041824,0.05087608844041824,0.05087608844041824,1.0],1.0],"is_active_output":false,"name":"Background","outputs":[[0,0,0,0]],"type":"BACKGROUND_BL"},{"inputs":[[0.0,0.0,0.0]],"is_active_output":false,"name":"Environment Texture","outputs":[[0.0,0.0,0.0,0.0]],"projection":"EQUIRECTANGULAR","texture":4,"type":"TEX_ENVIRONMENT_BL"}]},"useCastShadows":true}},"name":"Verge3D_Environment_World"}],"meshes":[{"extensions":{"S8S_v3d_mesh":{"colorLayers":{},"uvLayers":{"UVMap":"TEXCOORD_0"}}},"name":"4","primitives":[{"attributes":{"NORMAL":2,"POSITION":1,"TEXCOORD_0":3},"indices":0,"material":0,"mode":4}]},{"extensions":{"S8S_v3d_mesh":{"colorLayers":{"Col":"COLOR_0"},"uvLayers":{"UVMap":"TEXCOORD_0"}}},"name":"Cube.002","primitives":[{"attributes":{"COLOR_0":8,"NORMAL":6,"POSITION":5,"TEXCOORD_0":7},"indices":4,"material":1,"mode":4}]},{"extensions":{"S8S_v3d_mesh":{"colorLayers":{"Col":"COLOR_0"},"uvLayers":{"UVMap":"TEXCOORD_0"}}},"name":"Cube.003","primitives":[{"attributes":{"COLOR_0":13,"NORMAL":11,"POSITION":10,"TEXCOORD_0":12},"indices":9,"material":1,"mode":4}]},{"extensions":{"S8S_v3d_mesh":{"colorLayers":{"Col":"COLOR_0"},"uvLayers":{"UVMap":"TEXCOORD_0"}}},"name":"Cube.005","primitives":[{"attributes":{"COLOR_0":18,"NORMAL":16,"POSITION":15,"TEXCOORD_0":17},"indices":14,"material":1,"mode":4}]},{"extensions":{"S8S_v3d_mesh":{"colorLayers":{"Col":"COLOR_0"},"uvLayers":{"UVMap":"TEXCOORD_0"}}},"name":"Cube.006","primitives":[{"attributes":{"COLOR_0":23,"NORMAL":21,"POSITION":20,"TEXCOORD_0":22},"indices":19,"material":1,"mode":4}]},{"extensions":{"S8S_v3d_mesh":{"colorLayers":{"Col":"COLOR_0"},"uvLayers":{"UVMap":"TEXCOORD_0"}}},"name":"Cube.007","primitives":[{"attributes":{"COLOR_0":28,"NORMAL":26,"POSITION":25,"TEXCOORD_0":27},"indices":24,"material":2,"mode":4}]}],"nodes":[{"extensions":{"S8S_v3d_lights":{"light":0},"S8S_v3d_node":{"frustumCulling":true,"groupNames":["Collection"],"hidden":false,"hidpiCompositing":false,"objectColor":[0.0,0.0,0.0,0.0],"objectIndex":0,"renderOrder":0}},"name":"Light","rotation":[-0.41351568698883057,0.21472540497779846,-0.871418833732605,0.15338507294654846],"scale":[1.0000001192092896,0.9999999403953552,0.9999999403953552],"translation":[4.179049968719482,3.4758732318878174,-8.299102783203125]},{"extensions":{"S8S_v3d_node":{"frustumCulling":true,"groupNames":["Collection"],"hidden":false,"hidpiCompositing":false,"objectColor":[1.0,1.0,1.0,1.0],"objectIndex":0,"renderOrder":0,"useShadows":true}},"mesh":3,"name":"frame","rotation":[0.11320321261882782,0.0,-0.0,0.9935718774795532],"scale":[2.950000047683716,4.200000286102295,0.10000000149011612],"translation":[0.3985705077648163,0.5126025676727295,-0.0002946946769952774]},{"camera":0,"extensions":{"S8S_v3d_node":{"frustumCulling":true,"groupNames":["Collection"],"hidden":false,"hidpiCompositing":false,"objectColor":[0.0,0.0,0.0,0.0],"objectIndex":0,"renderOrder":0}},"name":"Camera","rotation":[-0.20997294783592224,0.3857799768447876,0.09062846004962921,0.8937962055206299],"scale":[1.0,0.9999999403953552,0.9999998807907104],"translation":[13.197378158569336,4.958309173583984,-23.695093154907227]},{"extensions":{"S8S_v3d_node":{"frustumCulling":true,"groupNames":["Collection"],"hidden":false,"hidpiCompositing":false,"objectColor":[1.0,1.0,1.0,1.0],"objectIndex":0,"renderOrder":0,"useShadows":true}},"mesh":1,"name":"insert","rotation":[0.11320321261882782,0.0,-0.0,0.9935718774795532],"scale":[2.950000047683716,4.200000286102295,0.10000000149011612],"translation":[0.3985705077648163,0.5126025676727295,-0.0002946946769952774]},{"extensions":{"S8S_v3d_node":{"frustumCulling":true,"groupNames":["Collection"],"hidden":false,"hidpiCompositing":false,"objectColor":[1.0,1.0,1.0,1.0],"objectIndex":0,"renderOrder":0,"useShadows":true}},"mesh":2,"name":"artwork","rotation":[0.11320321261882782,0.0,-0.0,0.9935718774795532],"scale":[2.950000047683716,4.200000286102295,0.10000000149011612],"translation":[0.3985705077648163,0.5126025676727295,-0.0002946946769952774]},{"extensions":{"S8S_v3d_node":{"frustumCulling":true,"groupNames":["Collection"],"hidden":false,"hidpiCompositing":false,"objectColor":[1.0,1.0,1.0,1.0],"objectIndex":0,"renderOrder":0,"useShadows":true}},"mesh":4,"name":"backing","rotation":[0.11320321261882782,0.0,-0.0,0.9935718774795532],"scale":[2.950000047683716,4.200000286102295,0.10000000149011612],"translation":[0.3985705077648163,0.5126025676727295,-0.0002946946769952774]},{"extensions":{"S8S_v3d_node":{"frustumCulling":true,"groupNames":["Collection"],"hidden":false,"hidpiCompositing":false,"objectColor":[1.0,1.0,1.0,1.0],"objectIndex":0,"renderOrder":0,"useShadows":true}},"mesh":5,"name":"Easel","rotation":[0.11320321261882782,0.0,-0.0,0.9935718774795532],"scale":[2.950000047683716,4.200000286102295,0.10000000149011612],"translation":[0.3985705077648163,0.5126025676727295,-0.0002946946769952774]},{"extensions":{"S8S_v3d_node":{"frustumCulling":true,"groupNames":["Collection"],"hidden":false,"hidpiCompositing":false,"objectColor":[1.0,1.0,1.0,1.0],"objectIndex":0,"renderOrder":0,"useShadows":true}},"mesh":0,"name":"4","rotation":[-1.0,-0.0,0.0,4.371138828673793e-08],"translation":[0.0,0.8016026020050049,-0.12369393557310104]}],"samplers":[{},{"magFilter":9729,"minFilter":9987,"wrapS":33071,"wrapT":33071}],"scene":0,"scenes":[{"extensions":{"S8S_v3d_scene":{"aaMethod":"AUTO","iblEnvironmentMode":"PMREM","physicallyCorrectLights":true,"pmremMaxTileSize":512,"shadowMap":{"esmDistanceScale":1.0,"renderReverseSided":false,"renderSingleSided":true,"type":"PCFPOISSON"},"toneMapping":{"type":"filmicBlender"},"worldMaterial":3}},"extras":{"animFrameRate":24,"coordSystem":"Z_UP_RIGHT"},"name":"Scene","nodes":[0,2,3,4,1,5,6,7]}],"textures":[{"extensions":{"S8S_v3d_texture":{"colorSpace":"srgb"}},"name":"4.jpg","sampler":1,"source":0},{"extensions":{"S8S_v3d_texture":{"colorSpace":"srgb"}},"name":"whole","sampler":0,"source":1},{"extensions":{"S8S_v3d_texture":{"colorSpace":"srgb"}},"name":"whole.001","sampler":0,"source":2},{"extensions":{"S8S_v3d_texture":{"colorSpace":"srgb"}},"name":"Wood09_2K_BaseColor.png.001","sampler":0,"source":3},{"extensions":{"S8S_v3d_texture":{"colorSpace":"linear"}},"name":"studio_country_hall_4k.exr","sampler":0,"source":4}]}
